<mxfile host="app.diagrams.net" modified="2023-12-19T23:04:22.037Z" agent="Mozilla/5.0 (Windows NT 10.0; Win64; x64; rv:120.0) Gecko/20100101 Firefox/120.0" etag="-9Fh0K8QYfBq-BiQFv5Z" version="22.1.11" type="device">
  <diagram name="Strona-1" id="S3MRUzKtftC-cSetrHAy">
    <mxGraphModel dx="1050" dy="558" grid="1" gridSize="10" guides="1" tooltips="1" connect="1" arrows="1" fold="1" page="1" pageScale="1" pageWidth="827" pageHeight="1169" math="0" shadow="0">
      <root>
        <mxCell id="0" />
        <mxCell id="1" parent="0" />
        <mxCell id="KqQnJMLGOeQ7BuAJjgx--54" style="edgeStyle=orthogonalEdgeStyle;rounded=0;orthogonalLoop=1;jettySize=auto;html=1;exitX=0.5;exitY=1;exitDx=0;exitDy=0;entryX=0.5;entryY=0;entryDx=0;entryDy=0;" edge="1" parent="1" source="KqQnJMLGOeQ7BuAJjgx--2" target="KqQnJMLGOeQ7BuAJjgx--53">
          <mxGeometry relative="1" as="geometry" />
        </mxCell>
        <mxCell id="KqQnJMLGOeQ7BuAJjgx--2" value="The Chosen Khan" style="rounded=0;whiteSpace=wrap;html=1;" vertex="1" parent="1">
          <mxGeometry width="120" height="60" as="geometry" />
        </mxCell>
        <mxCell id="KqQnJMLGOeQ7BuAJjgx--7" style="edgeStyle=orthogonalEdgeStyle;rounded=0;orthogonalLoop=1;jettySize=auto;html=1;exitX=0.5;exitY=1;exitDx=0;exitDy=0;" edge="1" parent="1" source="KqQnJMLGOeQ7BuAJjgx--5" target="KqQnJMLGOeQ7BuAJjgx--6">
          <mxGeometry relative="1" as="geometry" />
        </mxCell>
        <mxCell id="KqQnJMLGOeQ7BuAJjgx--9" style="edgeStyle=orthogonalEdgeStyle;rounded=0;orthogonalLoop=1;jettySize=auto;html=1;exitX=0.75;exitY=1;exitDx=0;exitDy=0;" edge="1" parent="1" source="KqQnJMLGOeQ7BuAJjgx--5" target="KqQnJMLGOeQ7BuAJjgx--8">
          <mxGeometry relative="1" as="geometry" />
        </mxCell>
        <mxCell id="KqQnJMLGOeQ7BuAJjgx--48" style="edgeStyle=orthogonalEdgeStyle;rounded=0;orthogonalLoop=1;jettySize=auto;html=1;exitX=0.25;exitY=1;exitDx=0;exitDy=0;" edge="1" parent="1" source="KqQnJMLGOeQ7BuAJjgx--5" target="KqQnJMLGOeQ7BuAJjgx--47">
          <mxGeometry relative="1" as="geometry" />
        </mxCell>
        <mxCell id="KqQnJMLGOeQ7BuAJjgx--5" value="Organize the Raiding Parties" style="rounded=0;whiteSpace=wrap;html=1;" vertex="1" parent="1">
          <mxGeometry x="530" width="120" height="60" as="geometry" />
        </mxCell>
        <mxCell id="KqQnJMLGOeQ7BuAJjgx--13" style="edgeStyle=orthogonalEdgeStyle;rounded=0;orthogonalLoop=1;jettySize=auto;html=1;exitX=0.5;exitY=1;exitDx=0;exitDy=0;" edge="1" parent="1" source="KqQnJMLGOeQ7BuAJjgx--6" target="KqQnJMLGOeQ7BuAJjgx--12">
          <mxGeometry relative="1" as="geometry" />
        </mxCell>
        <mxCell id="KqQnJMLGOeQ7BuAJjgx--6" value="War against the Tauren" style="rounded=0;whiteSpace=wrap;html=1;" vertex="1" parent="1">
          <mxGeometry x="530" y="120" width="120" height="60" as="geometry" />
        </mxCell>
        <mxCell id="KqQnJMLGOeQ7BuAJjgx--11" style="edgeStyle=orthogonalEdgeStyle;rounded=0;orthogonalLoop=1;jettySize=auto;html=1;exitX=0.5;exitY=1;exitDx=0;exitDy=0;" edge="1" parent="1" source="KqQnJMLGOeQ7BuAJjgx--8" target="KqQnJMLGOeQ7BuAJjgx--10">
          <mxGeometry relative="1" as="geometry" />
        </mxCell>
        <mxCell id="KqQnJMLGOeQ7BuAJjgx--8" value="Subjegate Krenka Khanate" style="rounded=0;whiteSpace=wrap;html=1;" vertex="1" parent="1">
          <mxGeometry x="707" y="120" width="120" height="60" as="geometry" />
        </mxCell>
        <mxCell id="KqQnJMLGOeQ7BuAJjgx--16" style="edgeStyle=orthogonalEdgeStyle;rounded=0;orthogonalLoop=1;jettySize=auto;html=1;exitX=0.5;exitY=1;exitDx=0;exitDy=0;entryX=0.5;entryY=0;entryDx=0;entryDy=0;" edge="1" parent="1" source="KqQnJMLGOeQ7BuAJjgx--10" target="KqQnJMLGOeQ7BuAJjgx--15">
          <mxGeometry relative="1" as="geometry" />
        </mxCell>
        <mxCell id="KqQnJMLGOeQ7BuAJjgx--10" value="Cull the Harpies of Witchwing" style="rounded=0;whiteSpace=wrap;html=1;" vertex="1" parent="1">
          <mxGeometry x="707" y="240" width="120" height="60" as="geometry" />
        </mxCell>
        <mxCell id="KqQnJMLGOeQ7BuAJjgx--21" style="edgeStyle=orthogonalEdgeStyle;rounded=0;orthogonalLoop=1;jettySize=auto;html=1;exitX=0.5;exitY=1;exitDx=0;exitDy=0;entryX=0.5;entryY=0;entryDx=0;entryDy=0;" edge="1" parent="1" source="KqQnJMLGOeQ7BuAJjgx--12" target="KqQnJMLGOeQ7BuAJjgx--14">
          <mxGeometry relative="1" as="geometry" />
        </mxCell>
        <mxCell id="KqQnJMLGOeQ7BuAJjgx--12" value="Cull the Northern Barrens" style="rounded=0;whiteSpace=wrap;html=1;" vertex="1" parent="1">
          <mxGeometry x="530" y="240" width="120" height="60" as="geometry" />
        </mxCell>
        <mxCell id="KqQnJMLGOeQ7BuAJjgx--23" style="edgeStyle=orthogonalEdgeStyle;rounded=0;orthogonalLoop=1;jettySize=auto;html=1;exitX=0.5;exitY=1;exitDx=0;exitDy=0;" edge="1" parent="1" source="KqQnJMLGOeQ7BuAJjgx--14" target="KqQnJMLGOeQ7BuAJjgx--22">
          <mxGeometry relative="1" as="geometry" />
        </mxCell>
        <mxCell id="KqQnJMLGOeQ7BuAJjgx--25" style="edgeStyle=orthogonalEdgeStyle;rounded=0;orthogonalLoop=1;jettySize=auto;html=1;exitX=0.25;exitY=1;exitDx=0;exitDy=0;" edge="1" parent="1" source="KqQnJMLGOeQ7BuAJjgx--14" target="KqQnJMLGOeQ7BuAJjgx--24">
          <mxGeometry relative="1" as="geometry" />
        </mxCell>
        <mxCell id="KqQnJMLGOeQ7BuAJjgx--14" value="Invasion of Southern Barrens" style="rounded=0;whiteSpace=wrap;html=1;" vertex="1" parent="1">
          <mxGeometry x="530" y="360" width="120" height="60" as="geometry" />
        </mxCell>
        <mxCell id="KqQnJMLGOeQ7BuAJjgx--18" style="edgeStyle=orthogonalEdgeStyle;rounded=0;orthogonalLoop=1;jettySize=auto;html=1;exitX=0.5;exitY=1;exitDx=0;exitDy=0;" edge="1" parent="1" source="KqQnJMLGOeQ7BuAJjgx--15" target="KqQnJMLGOeQ7BuAJjgx--17">
          <mxGeometry relative="1" as="geometry" />
        </mxCell>
        <mxCell id="KqQnJMLGOeQ7BuAJjgx--15" value="Into the Stonetalon Mountains" style="rounded=0;whiteSpace=wrap;html=1;" vertex="1" parent="1">
          <mxGeometry x="707" y="360" width="120" height="60" as="geometry" />
        </mxCell>
        <mxCell id="KqQnJMLGOeQ7BuAJjgx--20" style="edgeStyle=orthogonalEdgeStyle;rounded=0;orthogonalLoop=1;jettySize=auto;html=1;exitX=0.5;exitY=1;exitDx=0;exitDy=0;" edge="1" parent="1" source="KqQnJMLGOeQ7BuAJjgx--17" target="KqQnJMLGOeQ7BuAJjgx--19">
          <mxGeometry relative="1" as="geometry" />
        </mxCell>
        <mxCell id="KqQnJMLGOeQ7BuAJjgx--17" value="Subjegate Stonetalon Khanate" style="rounded=0;whiteSpace=wrap;html=1;" vertex="1" parent="1">
          <mxGeometry x="707" y="480" width="120" height="60" as="geometry" />
        </mxCell>
        <mxCell id="KqQnJMLGOeQ7BuAJjgx--38" style="edgeStyle=orthogonalEdgeStyle;rounded=0;orthogonalLoop=1;jettySize=auto;html=1;exitX=0.5;exitY=1;exitDx=0;exitDy=0;entryX=0.75;entryY=0;entryDx=0;entryDy=0;" edge="1" parent="1" source="KqQnJMLGOeQ7BuAJjgx--19" target="KqQnJMLGOeQ7BuAJjgx--35">
          <mxGeometry relative="1" as="geometry" />
        </mxCell>
        <mxCell id="KqQnJMLGOeQ7BuAJjgx--19" value="Rule Stonetalon" style="rounded=0;whiteSpace=wrap;html=1;" vertex="1" parent="1">
          <mxGeometry x="707" y="600" width="120" height="60" as="geometry" />
        </mxCell>
        <mxCell id="KqQnJMLGOeQ7BuAJjgx--31" style="edgeStyle=orthogonalEdgeStyle;rounded=0;orthogonalLoop=1;jettySize=auto;html=1;exitX=0.5;exitY=1;exitDx=0;exitDy=0;" edge="1" parent="1" source="KqQnJMLGOeQ7BuAJjgx--22" target="KqQnJMLGOeQ7BuAJjgx--30">
          <mxGeometry relative="1" as="geometry" />
        </mxCell>
        <mxCell id="KqQnJMLGOeQ7BuAJjgx--22" value="Bull Blood of Barrens" style="rounded=0;whiteSpace=wrap;html=1;" vertex="1" parent="1">
          <mxGeometry x="530" y="480" width="120" height="60" as="geometry" />
        </mxCell>
        <mxCell id="KqQnJMLGOeQ7BuAJjgx--29" style="edgeStyle=orthogonalEdgeStyle;rounded=0;orthogonalLoop=1;jettySize=auto;html=1;exitX=0.5;exitY=1;exitDx=0;exitDy=0;" edge="1" parent="1" source="KqQnJMLGOeQ7BuAJjgx--24" target="KqQnJMLGOeQ7BuAJjgx--28">
          <mxGeometry relative="1" as="geometry" />
        </mxCell>
        <mxCell id="KqQnJMLGOeQ7BuAJjgx--24" value="Invasion of Mulgore" style="rounded=0;whiteSpace=wrap;html=1;" vertex="1" parent="1">
          <mxGeometry x="354" y="480" width="120" height="60" as="geometry" />
        </mxCell>
        <mxCell id="KqQnJMLGOeQ7BuAJjgx--33" style="edgeStyle=orthogonalEdgeStyle;rounded=0;orthogonalLoop=1;jettySize=auto;html=1;exitX=0.5;exitY=1;exitDx=0;exitDy=0;" edge="1" parent="1" source="KqQnJMLGOeQ7BuAJjgx--28" target="KqQnJMLGOeQ7BuAJjgx--32">
          <mxGeometry relative="1" as="geometry" />
        </mxCell>
        <mxCell id="KqQnJMLGOeQ7BuAJjgx--28" value="Cull the Mulgore" style="rounded=0;whiteSpace=wrap;html=1;" vertex="1" parent="1">
          <mxGeometry x="354" y="600" width="120" height="60" as="geometry" />
        </mxCell>
        <mxCell id="KqQnJMLGOeQ7BuAJjgx--37" style="edgeStyle=orthogonalEdgeStyle;rounded=0;orthogonalLoop=1;jettySize=auto;html=1;exitX=0.5;exitY=1;exitDx=0;exitDy=0;" edge="1" parent="1" source="KqQnJMLGOeQ7BuAJjgx--30" target="KqQnJMLGOeQ7BuAJjgx--35">
          <mxGeometry relative="1" as="geometry" />
        </mxCell>
        <mxCell id="KqQnJMLGOeQ7BuAJjgx--30" value="Rule the Barrens" style="rounded=0;whiteSpace=wrap;html=1;" vertex="1" parent="1">
          <mxGeometry x="530" y="600" width="120" height="60" as="geometry" />
        </mxCell>
        <mxCell id="KqQnJMLGOeQ7BuAJjgx--36" style="edgeStyle=orthogonalEdgeStyle;rounded=0;orthogonalLoop=1;jettySize=auto;html=1;exitX=0.75;exitY=1;exitDx=0;exitDy=0;entryX=0.25;entryY=0;entryDx=0;entryDy=0;" edge="1" parent="1" source="KqQnJMLGOeQ7BuAJjgx--32" target="KqQnJMLGOeQ7BuAJjgx--35">
          <mxGeometry relative="1" as="geometry" />
        </mxCell>
        <mxCell id="KqQnJMLGOeQ7BuAJjgx--32" value="Rule Mulgore" style="rounded=0;whiteSpace=wrap;html=1;" vertex="1" parent="1">
          <mxGeometry x="354" y="720" width="120" height="60" as="geometry" />
        </mxCell>
        <mxCell id="KqQnJMLGOeQ7BuAJjgx--46" style="edgeStyle=orthogonalEdgeStyle;rounded=0;orthogonalLoop=1;jettySize=auto;html=1;exitX=0.5;exitY=1;exitDx=0;exitDy=0;" edge="1" parent="1" source="KqQnJMLGOeQ7BuAJjgx--34" target="KqQnJMLGOeQ7BuAJjgx--45">
          <mxGeometry relative="1" as="geometry" />
        </mxCell>
        <mxCell id="KqQnJMLGOeQ7BuAJjgx--34" value="Great Tauren Hunt" style="rounded=0;whiteSpace=wrap;html=1;" vertex="1" parent="1">
          <mxGeometry x="354" y="960" width="120" height="60" as="geometry" />
        </mxCell>
        <mxCell id="KqQnJMLGOeQ7BuAJjgx--40" style="edgeStyle=orthogonalEdgeStyle;rounded=0;orthogonalLoop=1;jettySize=auto;html=1;exitX=0.5;exitY=1;exitDx=0;exitDy=0;" edge="1" parent="1" source="KqQnJMLGOeQ7BuAJjgx--35" target="KqQnJMLGOeQ7BuAJjgx--39">
          <mxGeometry relative="1" as="geometry" />
        </mxCell>
        <mxCell id="KqQnJMLGOeQ7BuAJjgx--44" style="edgeStyle=orthogonalEdgeStyle;rounded=0;orthogonalLoop=1;jettySize=auto;html=1;exitX=0.25;exitY=1;exitDx=0;exitDy=0;" edge="1" parent="1" source="KqQnJMLGOeQ7BuAJjgx--35" target="KqQnJMLGOeQ7BuAJjgx--34">
          <mxGeometry relative="1" as="geometry" />
        </mxCell>
        <mxCell id="KqQnJMLGOeQ7BuAJjgx--35" value="Heirs of the Centaur Race" style="rounded=0;whiteSpace=wrap;html=1;" vertex="1" parent="1">
          <mxGeometry x="530" y="840" width="120" height="60" as="geometry" />
        </mxCell>
        <mxCell id="KqQnJMLGOeQ7BuAJjgx--42" style="edgeStyle=orthogonalEdgeStyle;rounded=0;orthogonalLoop=1;jettySize=auto;html=1;exitX=0.5;exitY=1;exitDx=0;exitDy=0;entryX=0.5;entryY=0;entryDx=0;entryDy=0;" edge="1" parent="1" source="KqQnJMLGOeQ7BuAJjgx--39" target="KqQnJMLGOeQ7BuAJjgx--41">
          <mxGeometry relative="1" as="geometry" />
        </mxCell>
        <mxCell id="KqQnJMLGOeQ7BuAJjgx--39" value="Reclaim Desolace" style="rounded=0;whiteSpace=wrap;html=1;" vertex="1" parent="1">
          <mxGeometry x="530" y="960" width="120" height="60" as="geometry" />
        </mxCell>
        <mxCell id="KqQnJMLGOeQ7BuAJjgx--66" style="edgeStyle=orthogonalEdgeStyle;rounded=0;orthogonalLoop=1;jettySize=auto;html=1;exitX=0.5;exitY=1;exitDx=0;exitDy=0;" edge="1" parent="1" source="KqQnJMLGOeQ7BuAJjgx--41" target="KqQnJMLGOeQ7BuAJjgx--64">
          <mxGeometry relative="1" as="geometry" />
        </mxCell>
        <mxCell id="KqQnJMLGOeQ7BuAJjgx--75" style="edgeStyle=orthogonalEdgeStyle;rounded=0;orthogonalLoop=1;jettySize=auto;html=1;exitX=0.75;exitY=1;exitDx=0;exitDy=0;" edge="1" parent="1" source="KqQnJMLGOeQ7BuAJjgx--41" target="KqQnJMLGOeQ7BuAJjgx--74">
          <mxGeometry relative="1" as="geometry" />
        </mxCell>
        <mxCell id="KqQnJMLGOeQ7BuAJjgx--41" value="Unite the Khanates" style="rounded=0;whiteSpace=wrap;html=1;" vertex="1" parent="1">
          <mxGeometry x="530" y="1080" width="120" height="60" as="geometry" />
        </mxCell>
        <mxCell id="KqQnJMLGOeQ7BuAJjgx--45" value="Eradication of the Tauren" style="rounded=0;whiteSpace=wrap;html=1;" vertex="1" parent="1">
          <mxGeometry x="354" y="1080" width="120" height="60" as="geometry" />
        </mxCell>
        <mxCell id="KqQnJMLGOeQ7BuAJjgx--50" style="edgeStyle=orthogonalEdgeStyle;rounded=0;orthogonalLoop=1;jettySize=auto;html=1;exitX=0.5;exitY=1;exitDx=0;exitDy=0;" edge="1" parent="1" source="KqQnJMLGOeQ7BuAJjgx--47" target="KqQnJMLGOeQ7BuAJjgx--49">
          <mxGeometry relative="1" as="geometry" />
        </mxCell>
        <mxCell id="KqQnJMLGOeQ7BuAJjgx--47" value="Quillboar Agression" style="rounded=0;whiteSpace=wrap;html=1;" vertex="1" parent="1">
          <mxGeometry x="354" y="120" width="120" height="60" as="geometry" />
        </mxCell>
        <mxCell id="KqQnJMLGOeQ7BuAJjgx--52" style="edgeStyle=orthogonalEdgeStyle;rounded=0;orthogonalLoop=1;jettySize=auto;html=1;exitX=0.5;exitY=1;exitDx=0;exitDy=0;" edge="1" parent="1" source="KqQnJMLGOeQ7BuAJjgx--49" target="KqQnJMLGOeQ7BuAJjgx--51">
          <mxGeometry relative="1" as="geometry" />
        </mxCell>
        <mxCell id="KqQnJMLGOeQ7BuAJjgx--49" value="Dealing with Razormane" style="rounded=0;whiteSpace=wrap;html=1;" vertex="1" parent="1">
          <mxGeometry x="354" y="240" width="120" height="60" as="geometry" />
        </mxCell>
        <mxCell id="KqQnJMLGOeQ7BuAJjgx--51" value="Control of Durotar" style="rounded=0;whiteSpace=wrap;html=1;" vertex="1" parent="1">
          <mxGeometry x="354" y="360" width="120" height="60" as="geometry" />
        </mxCell>
        <mxCell id="KqQnJMLGOeQ7BuAJjgx--63" style="edgeStyle=orthogonalEdgeStyle;rounded=0;orthogonalLoop=1;jettySize=auto;html=1;exitX=0.5;exitY=1;exitDx=0;exitDy=0;" edge="1" parent="1" source="KqQnJMLGOeQ7BuAJjgx--53" target="KqQnJMLGOeQ7BuAJjgx--55">
          <mxGeometry relative="1" as="geometry" />
        </mxCell>
        <mxCell id="KqQnJMLGOeQ7BuAJjgx--70" style="edgeStyle=orthogonalEdgeStyle;rounded=0;orthogonalLoop=1;jettySize=auto;html=1;exitX=0.75;exitY=1;exitDx=0;exitDy=0;" edge="1" parent="1" source="KqQnJMLGOeQ7BuAJjgx--53" target="KqQnJMLGOeQ7BuAJjgx--69">
          <mxGeometry relative="1" as="geometry" />
        </mxCell>
        <mxCell id="KqQnJMLGOeQ7BuAJjgx--53" value="The Speaker of the Spirits" style="rounded=0;whiteSpace=wrap;html=1;" vertex="1" parent="1">
          <mxGeometry y="120" width="120" height="60" as="geometry" />
        </mxCell>
        <mxCell id="KqQnJMLGOeQ7BuAJjgx--71" style="edgeStyle=orthogonalEdgeStyle;rounded=0;orthogonalLoop=1;jettySize=auto;html=1;exitX=0.5;exitY=1;exitDx=0;exitDy=0;" edge="1" parent="1" source="KqQnJMLGOeQ7BuAJjgx--55" target="KqQnJMLGOeQ7BuAJjgx--68">
          <mxGeometry relative="1" as="geometry" />
        </mxCell>
        <mxCell id="KqQnJMLGOeQ7BuAJjgx--55" value="The Weaver of Magic" style="rounded=0;whiteSpace=wrap;html=1;" vertex="1" parent="1">
          <mxGeometry y="240" width="120" height="60" as="geometry" />
        </mxCell>
        <mxCell id="KqQnJMLGOeQ7BuAJjgx--60" style="edgeStyle=orthogonalEdgeStyle;rounded=0;orthogonalLoop=1;jettySize=auto;html=1;exitX=0.5;exitY=1;exitDx=0;exitDy=0;entryX=0.5;entryY=0;entryDx=0;entryDy=0;" edge="1" parent="1" source="KqQnJMLGOeQ7BuAJjgx--56" target="KqQnJMLGOeQ7BuAJjgx--57">
          <mxGeometry relative="1" as="geometry" />
        </mxCell>
        <mxCell id="KqQnJMLGOeQ7BuAJjgx--56" value="The Show of Might" style="rounded=0;whiteSpace=wrap;html=1;" vertex="1" parent="1">
          <mxGeometry y="600" width="120" height="60" as="geometry" />
        </mxCell>
        <mxCell id="KqQnJMLGOeQ7BuAJjgx--62" style="edgeStyle=orthogonalEdgeStyle;rounded=0;orthogonalLoop=1;jettySize=auto;html=1;exitX=0.5;exitY=1;exitDx=0;exitDy=0;entryX=0.5;entryY=0;entryDx=0;entryDy=0;" edge="1" parent="1" source="KqQnJMLGOeQ7BuAJjgx--57" target="KqQnJMLGOeQ7BuAJjgx--61">
          <mxGeometry relative="1" as="geometry" />
        </mxCell>
        <mxCell id="KqQnJMLGOeQ7BuAJjgx--57" value="Khans of Galak" style="rounded=0;whiteSpace=wrap;html=1;" vertex="1" parent="1">
          <mxGeometry y="720" width="120" height="60" as="geometry" />
        </mxCell>
        <mxCell id="KqQnJMLGOeQ7BuAJjgx--61" value="The Union of Khanates" style="rounded=0;whiteSpace=wrap;html=1;" vertex="1" parent="1">
          <mxGeometry y="840" width="120" height="60" as="geometry" />
        </mxCell>
        <mxCell id="KqQnJMLGOeQ7BuAJjgx--67" style="edgeStyle=orthogonalEdgeStyle;rounded=0;orthogonalLoop=1;jettySize=auto;html=1;exitX=0.5;exitY=1;exitDx=0;exitDy=0;" edge="1" parent="1" source="KqQnJMLGOeQ7BuAJjgx--64" target="KqQnJMLGOeQ7BuAJjgx--65">
          <mxGeometry relative="1" as="geometry" />
        </mxCell>
        <mxCell id="KqQnJMLGOeQ7BuAJjgx--64" value="Mysteries of Marudaron" style="rounded=0;whiteSpace=wrap;html=1;" vertex="1" parent="1">
          <mxGeometry x="530" y="1200" width="120" height="60" as="geometry" />
        </mxCell>
        <mxCell id="KqQnJMLGOeQ7BuAJjgx--65" value="Awakening of the Earth Mother" style="rounded=0;whiteSpace=wrap;html=1;" vertex="1" parent="1">
          <mxGeometry x="530" y="1320" width="120" height="60" as="geometry" />
        </mxCell>
        <mxCell id="KqQnJMLGOeQ7BuAJjgx--68" value="The Ritual of Champions" style="rounded=0;whiteSpace=wrap;html=1;" vertex="1" parent="1">
          <mxGeometry y="360" width="120" height="60" as="geometry" />
        </mxCell>
        <mxCell id="KqQnJMLGOeQ7BuAJjgx--69" value="Trial by Blood" style="rounded=0;whiteSpace=wrap;html=1;" vertex="1" parent="1">
          <mxGeometry x="180" y="240" width="120" height="60" as="geometry" />
        </mxCell>
        <mxCell id="KqQnJMLGOeQ7BuAJjgx--77" style="edgeStyle=orthogonalEdgeStyle;rounded=0;orthogonalLoop=1;jettySize=auto;html=1;exitX=0.5;exitY=1;exitDx=0;exitDy=0;" edge="1" parent="1" source="KqQnJMLGOeQ7BuAJjgx--74" target="KqQnJMLGOeQ7BuAJjgx--76">
          <mxGeometry relative="1" as="geometry" />
        </mxCell>
        <mxCell id="KqQnJMLGOeQ7BuAJjgx--74" value="Domination of Central Kalimdor" style="rounded=0;whiteSpace=wrap;html=1;" vertex="1" parent="1">
          <mxGeometry x="707" y="1200" width="120" height="60" as="geometry" />
        </mxCell>
        <mxCell id="KqQnJMLGOeQ7BuAJjgx--76" value="The Scourge on Horseback" style="rounded=0;whiteSpace=wrap;html=1;" vertex="1" parent="1">
          <mxGeometry x="707" y="1320" width="120" height="60" as="geometry" />
        </mxCell>
        <mxCell id="KqQnJMLGOeQ7BuAJjgx--85" style="edgeStyle=orthogonalEdgeStyle;rounded=0;orthogonalLoop=1;jettySize=auto;html=1;exitX=0.5;exitY=1;exitDx=0;exitDy=0;entryX=0.5;entryY=0;entryDx=0;entryDy=0;" edge="1" parent="1" source="KqQnJMLGOeQ7BuAJjgx--78" target="KqQnJMLGOeQ7BuAJjgx--79">
          <mxGeometry relative="1" as="geometry" />
        </mxCell>
        <mxCell id="KqQnJMLGOeQ7BuAJjgx--86" style="edgeStyle=orthogonalEdgeStyle;rounded=0;orthogonalLoop=1;jettySize=auto;html=1;exitX=0.75;exitY=1;exitDx=0;exitDy=0;" edge="1" parent="1" source="KqQnJMLGOeQ7BuAJjgx--78" target="KqQnJMLGOeQ7BuAJjgx--80">
          <mxGeometry relative="1" as="geometry" />
        </mxCell>
        <mxCell id="KqQnJMLGOeQ7BuAJjgx--78" value="The Path of the Future" style="rounded=0;whiteSpace=wrap;html=1;" vertex="1" parent="1">
          <mxGeometry y="960" width="120" height="60" as="geometry" />
        </mxCell>
        <mxCell id="KqQnJMLGOeQ7BuAJjgx--87" style="edgeStyle=orthogonalEdgeStyle;rounded=0;orthogonalLoop=1;jettySize=auto;html=1;exitX=0.5;exitY=1;exitDx=0;exitDy=0;" edge="1" parent="1" source="KqQnJMLGOeQ7BuAJjgx--79" target="KqQnJMLGOeQ7BuAJjgx--81">
          <mxGeometry relative="1" as="geometry" />
        </mxCell>
        <mxCell id="KqQnJMLGOeQ7BuAJjgx--79" value="The Civilization of Centaurs" style="rounded=0;whiteSpace=wrap;html=1;" vertex="1" parent="1">
          <mxGeometry y="1080" width="120" height="60" as="geometry" />
        </mxCell>
        <mxCell id="KqQnJMLGOeQ7BuAJjgx--89" style="edgeStyle=orthogonalEdgeStyle;rounded=0;orthogonalLoop=1;jettySize=auto;html=1;exitX=0.5;exitY=1;exitDx=0;exitDy=0;" edge="1" parent="1" source="KqQnJMLGOeQ7BuAJjgx--80" target="KqQnJMLGOeQ7BuAJjgx--82">
          <mxGeometry relative="1" as="geometry" />
        </mxCell>
        <mxCell id="KqQnJMLGOeQ7BuAJjgx--80" value="The Path of Conquest" style="rounded=0;whiteSpace=wrap;html=1;" vertex="1" parent="1">
          <mxGeometry x="180" y="1080" width="120" height="60" as="geometry" />
        </mxCell>
        <mxCell id="KqQnJMLGOeQ7BuAJjgx--88" style="edgeStyle=orthogonalEdgeStyle;rounded=0;orthogonalLoop=1;jettySize=auto;html=1;exitX=0.5;exitY=1;exitDx=0;exitDy=0;" edge="1" parent="1" source="KqQnJMLGOeQ7BuAJjgx--81" target="KqQnJMLGOeQ7BuAJjgx--83">
          <mxGeometry relative="1" as="geometry" />
        </mxCell>
        <mxCell id="KqQnJMLGOeQ7BuAJjgx--81" value="The New Identity" style="rounded=0;whiteSpace=wrap;html=1;" vertex="1" parent="1">
          <mxGeometry y="1200" width="120" height="60" as="geometry" />
        </mxCell>
        <mxCell id="KqQnJMLGOeQ7BuAJjgx--90" style="edgeStyle=orthogonalEdgeStyle;rounded=0;orthogonalLoop=1;jettySize=auto;html=1;exitX=0.5;exitY=1;exitDx=0;exitDy=0;" edge="1" parent="1" source="KqQnJMLGOeQ7BuAJjgx--82" target="KqQnJMLGOeQ7BuAJjgx--84">
          <mxGeometry relative="1" as="geometry" />
        </mxCell>
        <mxCell id="KqQnJMLGOeQ7BuAJjgx--82" value="Subjegation of the Civilized" style="rounded=0;whiteSpace=wrap;html=1;" vertex="1" parent="1">
          <mxGeometry x="180" y="1200" width="120" height="60" as="geometry" />
        </mxCell>
        <mxCell id="KqQnJMLGOeQ7BuAJjgx--83" value="First Centaur Empire" style="rounded=0;whiteSpace=wrap;html=1;" vertex="1" parent="1">
          <mxGeometry y="1320" width="120" height="60" as="geometry" />
        </mxCell>
        <mxCell id="KqQnJMLGOeQ7BuAJjgx--84" value="The Khan of Khans" style="rounded=0;whiteSpace=wrap;html=1;" vertex="1" parent="1">
          <mxGeometry x="180" y="1320" width="120" height="60" as="geometry" />
        </mxCell>
      </root>
    </mxGraphModel>
  </diagram>
</mxfile>
